<svg version="1.1" id="Layer_1" xmlns="http://www.w3.org/2000/svg" xmlns:xlink="http://www.w3.org/1999/xlink" x="0px" y="0px"
	 width="100%" viewBox="0 0 512 512" enable-background="new 0 0 512 512" xml:space="preserve">
<path fill="#000000" opacity="1.000000" stroke="none" 
	d="
M292.000000,513.000000 
	C194.690292,513.000000 97.880577,513.000000 1.035435,513.000000 
	C1.035435,342.398590 1.035435,171.797195 1.035435,1.097890 
	C171.559723,1.097890 342.119537,1.097890 512.839661,1.097890 
	C512.839661,171.666550 512.839661,342.333252 512.839661,513.000000 
	C439.463837,513.000000 365.981903,513.000000 292.000000,513.000000 
M359.954865,136.038757 
	C359.954865,136.038757 360.112671,136.057648 359.938843,135.483612 
	C359.606873,135.281586 359.274872,135.079559 358.990173,134.995789 
	C358.990173,134.995789 359.108429,134.948563 358.836853,134.330978 
	C336.473999,111.970596 314.120819,89.600494 291.744781,67.253319 
	C277.292633,52.819801 254.050476,49.871014 236.043686,59.078590 
	C221.751877,66.386559 207.839569,74.433250 193.694031,82.031441 
	C169.254227,95.159142 144.748672,108.164436 120.309341,121.293007 
	C115.823547,123.702728 111.521042,126.453659 106.995285,129.518127 
	C106.995285,129.518127 106.999054,130.009140 107.034592,129.963821 
	C107.034592,129.963821 106.979370,129.947495 106.340553,130.271484 
	C95.643257,153.300232 84.955727,176.333527 74.245750,199.356369 
	C64.705841,219.863953 55.380028,240.475830 45.513687,260.825409 
	C37.225132,277.920776 41.362034,298.335022 53.700661,310.314819 
	C69.833969,325.978973 85.543556,342.079041 101.475998,357.950836 
	C105.585602,362.044800 109.846886,365.986481 114.042343,369.965424 
	C114.042343,369.965424 114.009598,369.968781 114.105125,370.503662 
	C114.398163,370.701080 114.691200,370.898468 115.277496,371.688110 
	C123.497719,379.817535 131.717941,387.946960 140.178391,396.698120 
	C160.199432,416.715485 180.255600,436.697998 200.193176,456.798187 
	C202.458282,459.081818 204.676514,460.077179 207.935135,460.071106 
	C261.901947,459.970459 315.869049,459.999481 369.836060,459.999481 
	C371.445435,459.999481 373.054779,459.999451 375.028870,459.999451 
	C375.028870,438.368927 375.028870,417.250305 375.957458,396.027405 
	C400.190979,396.027405 424.424530,396.027405 448.795380,396.027405 
	C448.884705,393.983917 448.991791,392.674103 448.992004,391.364288 
	C449.000427,336.923523 449.031311,282.482666 448.880646,228.042328 
	C448.874756,225.905899 447.640228,223.261612 446.108185,221.716660 
	C419.146484,194.527603 392.054016,167.468124 364.965729,140.404770 
	C363.713226,139.153458 362.234680,138.128403 360.887268,136.444824 
	C360.582733,136.256851 360.278198,136.068893 359.954865,136.038757 
z"/>
<path fill="#1565C0" opacity="1.000000" stroke="none" 
	d="
M360.861420,136.997971 
	C362.234680,138.128403 363.713226,139.153458 364.965729,140.404770 
	C392.054016,167.468124 419.146484,194.527603 446.108185,221.716660 
	C447.640228,223.261612 448.874756,225.905899 448.880646,228.042328 
	C449.031311,282.482666 449.000427,336.923523 448.992004,391.364288 
	C448.991791,392.674103 448.884705,393.983917 448.795380,396.027405 
	C424.424530,396.027405 400.190979,396.027405 375.246613,395.951233 
	C374.063629,395.591919 373.591522,395.308807 372.959930,394.725342 
	C371.079651,392.618225 369.396271,390.773956 367.632660,389.009949 
	C282.899719,304.260406 198.159393,219.518250 113.424950,134.770218 
	C111.896416,133.241440 110.429291,131.651276 108.962997,129.844238 
	C108.992477,129.598724 109.052048,129.108475 109.516663,129.079605 
	C184.873718,129.036484 259.766144,129.018188 334.658600,129.031921 
	C336.472015,129.032257 338.346161,129.159531 340.087830,129.620850 
	C346.451935,131.306503 352.771851,133.158951 359.108429,134.948563 
	C359.108429,134.948563 358.990173,134.995789 359.156128,135.138885 
	C359.585602,135.540543 359.849121,135.799103 360.112671,136.057648 
	C360.112671,136.057648 359.954865,136.038757 360.088562,136.167770 
	C360.341309,136.616211 360.554352,136.849945 360.861420,136.997971 
z"/>
<path fill="#42A5F5" opacity="1.000000" stroke="none" 
	d="
M108.933510,130.089752 
	C110.429291,131.651276 111.896416,133.241440 113.424950,134.770218 
	C198.159393,219.518250 282.899719,304.260406 367.632660,389.009949 
	C369.396271,390.773956 371.079651,392.618225 372.566406,394.875916 
	C369.680603,395.488647 367.028900,395.790924 364.377045,395.791870 
	C292.392639,395.817596 220.408218,395.809448 148.423813,395.823669 
	C145.595245,395.824219 142.766724,395.988434 139.938171,396.076416 
	C131.717941,387.946960 123.497719,379.817535 115.061325,371.134033 
	C114.566635,370.376221 114.288109,370.172516 114.009598,369.968781 
	C114.009598,369.968781 114.042343,369.965424 114.044037,369.610779 
	C108.131599,358.871948 107.697197,347.566589 107.730186,335.950500 
	C107.916367,270.408966 107.831482,204.866638 107.784134,139.324646 
	C107.781876,136.198746 107.259521,133.073196 106.979370,129.947495 
	C106.979370,129.947495 107.034592,129.963821 107.338181,130.021271 
	C108.072350,130.082382 108.502930,130.086060 108.933510,130.089752 
z"/>
<path fill="#85CBF8" opacity="1.000000" stroke="none" 
	d="
M140.058289,396.387268 
	C142.766724,395.988434 145.595245,395.824219 148.423813,395.823669 
	C220.408218,395.809448 292.392639,395.817596 364.377045,395.791870 
	C367.028900,395.790924 369.680603,395.488647 372.725891,395.176208 
	C373.591522,395.308807 374.063629,395.591919 374.782318,396.003357 
	C375.028870,417.250305 375.028870,438.368927 375.028870,459.999451 
	C373.054779,459.999451 371.445435,459.999481 369.836060,459.999481 
	C315.869049,459.999481 261.901947,459.970459 207.935135,460.071106 
	C204.676514,460.077179 202.458282,459.081818 200.193176,456.798187 
	C180.255600,436.697998 160.199432,416.715485 140.058289,396.387268 
z"/>
<path fill="#42A5F5" opacity="1.000000" stroke="none" 
	d="
M358.972656,134.639771 
	C352.771851,133.158951 346.451935,131.306503 340.087830,129.620850 
	C338.346161,129.159531 336.472015,129.032257 334.658600,129.031921 
	C259.766144,129.018188 184.873718,129.036484 109.197189,129.056885 
	C107.986710,129.057724 107.560326,129.052414 107.133934,129.047089 
	C111.521042,126.453659 115.823547,123.702728 120.309341,121.293007 
	C144.748672,108.164436 169.254227,95.159142 193.694031,82.031441 
	C207.839569,74.433250 221.751877,66.386559 236.043686,59.078590 
	C254.050476,49.871014 277.292633,52.819801 291.744781,67.253319 
	C314.120819,89.600494 336.473999,111.970596 358.972656,134.639771 
z"/>
<path fill="#1565C0" opacity="1.000000" stroke="none" 
	d="
M106.659958,130.109497 
	C107.259521,133.073196 107.781876,136.198746 107.784134,139.324646 
	C107.831482,204.866638 107.916367,270.408966 107.730186,335.950500 
	C107.697197,347.566589 108.131599,358.871948 114.042114,369.627136 
	C109.846886,365.986481 105.585602,362.044800 101.475998,357.950836 
	C85.543556,342.079041 69.833969,325.978973 53.700661,310.314819 
	C41.362034,298.335022 37.225132,277.920776 45.513687,260.825409 
	C55.380028,240.475830 64.705841,219.863953 74.245750,199.356369 
	C84.955727,176.333527 95.643257,153.300232 106.659958,130.109497 
z"/>
<path fill="#247AD2" opacity="1.000000" stroke="none" 
	d="
M107.064606,129.282608 
	C107.560326,129.052414 107.986710,129.057724 108.732574,129.085754 
	C109.052048,129.108475 108.992477,129.598724 108.962997,129.844238 
	C108.502930,130.086060 108.072350,130.082382 107.320412,130.043915 
	C106.999054,130.009140 106.995285,129.518127 107.064606,129.282608 
z"/>
<path fill="#42A5F5" opacity="1.000000" stroke="none" 
	d="
M360.025757,135.770630 
	C359.849121,135.799103 359.585602,135.540543 359.132477,135.079773 
	C359.274872,135.079559 359.606873,135.281586 360.025757,135.770630 
z"/>
<path fill="#42A5F5" opacity="1.000000" stroke="none" 
	d="
M360.874329,136.721405 
	C360.554352,136.849945 360.341309,136.616211 360.097961,136.088867 
	C360.278198,136.068893 360.582733,136.256851 360.874329,136.721405 
z"/>
<path fill="#1565C0" opacity="1.000000" stroke="none" 
	d="
M114.057358,370.236206 
	C114.288109,370.172516 114.566635,370.376221 114.914696,370.837891 
	C114.691200,370.898468 114.398163,370.701080 114.057358,370.236206 
z"/>
</svg>